<?xml version="1.0" standalone="no"?>
<!DOCTYPE svg PUBLIC "-//W3C//DTD SVG 20010904//EN"
 "http://www.w3.org/TR/2001/REC-SVG-20010904/DTD/svg10.dtd">
<svg version="1.0" xmlns="http://www.w3.org/2000/svg"
 width="1024.000000pt" height="1024.000000pt" viewBox="0 0 1024.000000 1024.000000"
 preserveAspectRatio="xMidYMid meet">

<g transform="translate(0.000000,1024.000000) scale(0.100000,-0.100000)"
fill="#000000" stroke="none">
<path d="M8970 10232 c0 -17 37 -42 54 -36 12 4 16 1 16 -15 0 -12 6 -21 15
-21 8 0 15 -4 15 -8 0 -5 11 -15 25 -22 14 -7 25 -20 25 -28 0 -8 11 -25 25
-38 14 -13 26 -27 26 -31 1 -5 4 -7 9 -6 4 1 5 -9 2 -22 -2 -15 0 -25 7 -25 6
0 11 5 11 10 0 19 15 9 40 -25 14 -20 46 -58 73 -85 26 -27 47 -54 47 -60 0
-5 5 -10 11 -10 5 0 7 -5 3 -12 -4 -7 -3 -8 5 -4 7 5 17 -5 26 -26 8 -18 30
-50 50 -72 19 -21 35 -42 35 -47 0 -5 11 -9 25 -9 17 0 29 -9 40 -30 9 -16 20
-30 26 -30 6 0 8 -9 4 -20 -5 -16 -2 -20 14 -20 22 0 73 -44 84 -73 4 -10 15
-20 24 -24 10 -4 24 -13 31 -20 7 -7 20 -13 27 -13 8 0 21 -10 29 -21 8 -12
25 -27 38 -33 13 -6 30 -27 39 -46 9 -19 20 -34 23 -32 21 8 42 -5 99 -63 35
-36 69 -65 76 -65 6 0 11 -5 11 -10 0 -6 11 -15 25 -20 14 -5 25 -14 25 -20 0
-5 6 -10 13 -10 6 0 25 -18 41 -40 59 -79 56 -106 56 570 l0 620 -635 0 c-349
0 -635 -4 -635 -8z"/>
<path d="M3826 7048 c-9 -12 -16 -29 -16 -38 0 -9 7 -26 16 -38 14 -20 23 -22
105 -22 103 0 143 -13 182 -59 34 -40 44 -77 157 -556 51 -214 110 -461 131
-549 l39 -158 -44 -49 c-114 -127 -72 -307 88 -374 34 -14 117 -16 694 -16
l657 0 17 22 c23 27 23 41 0 69 l-17 21 -640 0 c-686 0 -690 0 -728 50 -37 51
-15 145 40 167 26 10 263 37 1006 112 158 16 306 34 328 40 25 7 57 28 84 55
49 49 43 30 170 482 l77 272 -16 53 c-9 33 -27 65 -48 85 -63 61 -76 63 -413
63 -237 0 -305 -3 -305 -12 0 -7 8 -34 17 -60 l17 -48 282 0 c155 0 290 -3
299 -6 8 -4 23 -20 31 -36 14 -28 12 -42 -64 -311 -44 -155 -85 -303 -92 -330
-15 -55 -54 -94 -103 -101 -18 -3 -147 -17 -287 -31 -140 -14 -406 -41 -590
-60 -184 -19 -338 -31 -342 -27 -4 4 -27 95 -53 202 -25 107 -70 294 -99 415
-30 121 -57 235 -61 253 l-7 32 290 0 290 0 20 60 21 60 -324 0 -323 0 -22 93
c-28 121 -51 167 -111 221 -66 59 -119 76 -240 76 -90 0 -99 -2 -113 -22z
m331 -75 c27 -27 40 -41 29 -32 -12 9 -42 28 -68 43 -53 29 -58 36 -29 36 11
0 42 -21 68 -47z m1333 -327 c0 -8 -51 -13 -56 -5 -3 5 9 9 25 9 17 0 31 -2
31 -4z m292 -3 c-51 -2 -132 -2 -180 0 -48 1 -6 3 93 3 99 0 138 -2 87 -3z"/>
<path d="M5062 6803 c-11 -32 -62 -168 -112 -303 -51 -135 -109 -292 -130
-350 -21 -58 -52 -140 -69 -184 -18 -43 -30 -80 -28 -82 1 -2 29 -5 61 -7 62
-4 79 5 91 46 12 40 88 232 98 245 7 9 59 12 199 12 l189 0 21 -47 c12 -27 38
-93 59 -148 l38 -100 75 -3 75 -3 -44 108 c-59 147 -152 389 -214 558 -28 77
-65 178 -84 225 l-33 85 -86 3 -86 3 -20 -58z m203 -30 c18 -52 24 -84 19
-102 l-7 -26 -7 25 c-7 21 -8 22 -9 5 -1 -11 -4 -31 -8 -45 l-6 -25 22 22 c11
12 21 27 21 33 0 28 17 4 38 -52 27 -78 27 -85 0 -83 -17 2 -23 8 -22 25 1 20
0 21 -11 6 -16 -21 -36 -21 -28 1 4 9 2 14 -3 10 -6 -3 -20 21 -33 53 -41 103
-81 124 -101 51 -15 -53 -26 -68 -33 -42 -3 12 -2 19 2 17 4 -3 11 10 17 29 8
26 8 32 -3 28 -7 -3 -13 1 -14 8 -1 8 -5 3 -9 -11 l-8 -25 -1 25 -2 25 -15
-27 c-8 -16 -16 -28 -18 -28 -5 0 46 154 54 165 5 6 38 11 73 12 l65 1 27 -75z
m-50 -193 c40 -101 95 -258 95 -272 0 -4 -66 -8 -146 -8 -80 0 -144 4 -142 8
2 5 34 93 72 196 38 102 73 183 76 179 4 -5 24 -51 45 -103z"/>
<path d="M5232 6655 c0 -16 2 -22 5 -12 2 9 2 23 0 30 -3 6 -5 -1 -5 -18z"/>
<path d="M5084 6056 c-30 -30 -34 -41 -34 -83 0 -43 5 -55 34 -85 70 -72 167
-53 206 41 17 43 0 101 -41 135 -24 20 -41 26 -81 26 -44 0 -54 -4 -84 -34z"/>
<path d="M4583 5161 c-75 -35 -108 -118 -78 -197 44 -116 195 -139 270 -40
100 131 -42 307 -192 237z m110 -112 c16 -26 0 -68 -29 -75 -27 -7 -64 18 -64
44 0 44 70 68 93 31z"/>
<path d="M5545 5165 c-99 -36 -135 -166 -68 -245 90 -108 258 -63 279 75 5 37
2 54 -18 93 -38 74 -116 105 -193 77z m97 -120 c22 -50 -38 -97 -76 -59 -33
32 -11 84 35 84 22 0 32 -6 41 -25z"/>
<path d="M3404 4563 c-60 -133 -254 -574 -282 -641 l-31 -73 100 3 100 3 31
73 30 72 172 0 172 0 30 -72 30 -73 102 -3 102 -3 -23 53 c-53 119 -154 344
-233 516 -46 101 -84 188 -84 193 0 5 -43 9 -95 9 l-95 0 -26 -57z m126 -153
c0 -6 23 -64 50 -129 28 -65 50 -122 50 -125 0 -3 -50 -6 -111 -6 -61 0 -109
4 -107 9 83 217 118 291 118 251z"/>
<path d="M4040 4235 l0 -385 285 0 286 0 -3 78 -3 77 -187 3 -188 2 0 305 0
305 -95 0 -95 0 0 -385z"/>
<path d="M4710 4235 l0 -385 305 0 305 0 0 75 0 75 -210 0 -211 0 3 83 3 82
173 3 172 2 0 70 0 70 -175 0 -175 0 0 80 0 80 198 2 197 3 3 73 3 72 -296 0
-295 0 0 -385z"/>
<path d="M5400 4612 c0 -5 56 -91 125 -192 l125 -183 -37 -51 c-20 -28 -68
-96 -106 -151 -39 -55 -83 -116 -99 -136 -15 -20 -28 -40 -28 -43 0 -3 48 -6
108 -5 l107 0 84 130 c46 71 86 127 90 125 3 -2 44 -61 91 -130 l85 -126 112
0 112 0 -63 88 c-34 48 -97 137 -140 199 l-77 112 119 173 c65 95 122 179 126
186 6 9 -16 12 -97 12 l-103 0 -79 -119 c-56 -85 -83 -117 -91 -110 -6 5 -44
59 -84 119 l-73 110 -103 0 c-57 0 -104 -4 -104 -8z"/>
<path d="M6200 4611 c0 -4 51 -83 114 -174 63 -91 119 -174 125 -184 8 -17
-10 -47 -118 -199 -70 -98 -130 -185 -135 -191 -5 -10 17 -13 101 -13 l108 0
85 129 c47 71 88 128 91 125 3 -2 43 -60 90 -129 l83 -125 109 0 c82 0 106 3
101 12 -9 15 -118 171 -202 291 -34 48 -62 90 -62 93 0 3 53 82 118 176 64 95
121 178 125 185 6 10 -13 13 -96 13 l-104 0 -79 -119 c-69 -105 -81 -118 -94
-106 -8 8 -44 61 -80 119 l-65 105 -107 1 c-60 0 -108 -4 -108 -9z"/>
<path d="M4262 3650 c-12 -5 -30 -25 -39 -45 -16 -33 -16 -37 0 -70 14 -30 25
-37 93 -58 84 -25 100 -40 90 -80 -5 -20 -16 -29 -45 -37 -38 -10 -61 -6 -133
25 -13 5 -18 3 -18 -9 0 -31 101 -64 158 -51 43 9 82 48 82 82 0 46 -25 70
-97 93 -79 26 -103 44 -103 76 0 46 69 67 139 43 24 -8 36 -8 44 0 27 27 -115
53 -171 31z"/>
<path d="M4642 3493 c3 -154 4 -168 22 -171 17 -4 18 3 15 75 l-4 78 108 3
107 3 0 -81 c0 -72 2 -81 18 -78 15 3 17 20 19 171 3 161 2 167 -17 167 -18 0
-20 -7 -20 -75 l0 -75 -105 0 -105 0 -1 68 c-1 37 -1 70 0 75 0 4 -8 7 -19 7
-20 0 -20 -5 -18 -167z"/>
<path d="M5208 3640 c-52 -28 -81 -73 -86 -134 -5 -68 16 -118 65 -150 86 -57
195 -37 250 45 22 33 25 47 21 99 -5 64 -22 98 -71 134 -39 29 -131 32 -179 6z
m148 -26 c35 -17 74 -81 74 -122 0 -63 -53 -126 -115 -138 -98 -18 -187 84
-156 179 11 34 53 80 81 90 30 11 83 7 116 -9z"/>
<path d="M5657 3647 c-3 -8 -6 -84 -6 -170 -2 -152 -1 -157 19 -157 18 0 20 6
20 55 l0 55 60 0 c108 0 163 41 163 121 0 73 -58 109 -177 109 -52 0 -75 -4
-79 -13z m182 -32 c46 -23 56 -84 22 -126 -16 -20 -30 -24 -95 -27 l-76 -4 0
86 0 86 60 0 c34 0 74 -7 89 -15z"/>
<path d="M0 922 l0 -922 1001 0 1001 0 -31 35 c-17 20 -31 40 -31 45 0 12 -79
90 -91 90 -5 0 -9 4 -9 9 0 13 -101 124 -147 162 -11 9 -27 27 -37 40 -14 20
-19 22 -36 11 -18 -11 -20 -10 -20 10 -1 15 -13 31 -33 44 -18 11 -31 26 -29
33 2 8 -4 10 -16 7 -25 -8 -82 44 -82 76 -1 15 -12 30 -33 43 -18 11 -36 30
-42 43 -5 12 -17 24 -26 27 -22 7 -84 77 -81 92 1 6 -7 14 -18 18 -11 3 -20
12 -20 19 0 7 -15 20 -32 29 -41 21 -143 107 -143 120 0 5 -19 29 -42 53 -24
24 -43 50 -43 58 0 9 -16 20 -39 27 -23 7 -41 19 -44 30 -3 10 -26 25 -57 36
-39 13 -58 27 -73 51 -10 17 -25 32 -31 32 -7 0 -21 9 -31 20 -10 11 -14 20
-9 20 5 0 -3 11 -18 25 -15 14 -34 25 -43 25 -8 0 -15 7 -15 15 0 9 -16 25
-35 36 -20 12 -40 30 -46 40 -5 11 -16 19 -24 19 -8 0 -15 7 -15 16 0 18 -32
47 -75 69 -16 8 -47 30 -69 49 -21 19 -51 38 -67 41 -16 4 -29 12 -29 18 0 12
-25 29 -62 43 -10 3 -18 11 -18 18 -1 6 -15 20 -33 32 -18 11 -31 26 -30 32 2
6 -9 19 -25 29 -15 9 -37 26 -49 37 l-23 19 0 -921z"/>
</g>
</svg>
